<?xml version="1.0" encoding="utf-8"?>
<!-- Generator: Adobe Illustrator 24.2.3, SVG Export Plug-In . SVG Version: 6.00 Build 0)  -->
<svg version="1.1" id="Lager_1" xmlns="http://www.w3.org/2000/svg" xmlns:xlink="http://www.w3.org/1999/xlink" x="0px" y="0px"
	 viewBox="0 0 68 132" style="enable-background:new 0 0 68 132;" xml:space="preserve">
<style type="text/css">
	.st0{fill:none;stroke:#000000;stroke-miterlimit:10;}
</style>
<g>
	<g>
		<g>
			<g>
				<path d="M5.77,51.79c-0.32,3.55-0.53,7.11-0.63,10.67c-0.04,1.7-0.06,3.4-0.05,5.1c0,0.89,0.02,1.78,0.03,2.67
					c0.02,0.74,0.27,1.91,0.07,2.6c-0.14,0.49-0.7,0.89-1.01,1.35c-0.37,0.54-0.63,1.14-0.87,1.74c-0.58,1.46-1.06,3.05-1,4.64
					c0.11,3.29,2.16,6.35,3.95,8.99c1.08,1.59,3.68,0.09,2.59-1.51c-1.69-2.49-4.07-5.67-3.43-8.85c0.26-1.29,0.71-2.77,1.6-3.77
					c1-1.13,1.18-1.96,1.13-3.48c-0.21-6.72,0-13.45,0.6-20.15C8.94,49.87,5.94,49.88,5.77,51.79L5.77,51.79z"/>
			</g>
		</g>
		<g>
			<g>
				<path d="M6.51,90.15c0.85,0.8,0.92,2.12,1.26,3.19c0.4,1.26,0.96,2.5,1.67,3.62c0.33,0.52,0.72,1,1.06,1.51
					c0.36,0.55,0.56,1.16,0.89,1.72c0.67,1.13,1.74,2.01,2.49,3.1c0.29,0.42,0.68,0.87,0.81,1.37c0.14,0.55-0.02,1.28-0.07,1.85
					c-0.13,1.47-0.4,2.93-0.66,4.38c-0.52,2.91-1.02,5.83-0.7,8.79c0.2,1.9,3.21,1.92,3,0c-0.34-3.17,0.3-6.25,0.83-9.36
					c0.26-1.49,0.49-2.99,0.58-4.5c0.09-1.46-0.16-2.49-0.97-3.7c-0.79-1.18-1.81-2.14-2.63-3.28c-0.37-0.52-0.54-1.17-0.87-1.72
					c-0.36-0.58-0.8-1.1-1.17-1.68c-0.8-1.27-1.31-2.6-1.68-4.04c-0.33-1.26-0.75-2.45-1.72-3.37C7.23,86.7,5.11,88.82,6.51,90.15
					L6.51,90.15z"/>
			</g>
		</g>
		<g>
			<g>
				<path d="M8.64,53.41c0.09-0.98,0.2-1.96,0.32-2.94c0.04-0.35-0.2-0.82-0.44-1.06c-0.26-0.26-0.69-0.46-1.06-0.44
					c-0.39,0.02-0.79,0.14-1.06,0.44c-0.08,0.1-0.16,0.2-0.23,0.3c-0.14,0.23-0.2,0.49-0.2,0.76c-0.12,0.98-0.23,1.96-0.32,2.94
					c-0.03,0.36,0.19,0.81,0.44,1.06c0.26,0.26,0.69,0.46,1.06,0.44c0.39-0.02,0.79-0.14,1.06-0.44c0.08-0.1,0.16-0.2,0.23-0.3
					C8.57,53.94,8.64,53.68,8.64,53.41L8.64,53.41z"/>
			</g>
		</g>
		<g>
			<g>
				<path d="M9.22,42.05c0-3.28-0.07-6.55,0.61-9.78c0.61-2.86,0.67-5.94,1.9-8.64c0.34-0.74,0.21-1.61-0.54-2.05
					c-0.65-0.38-1.71-0.2-2.05,0.54c-1.36,2.98-1.53,6.19-2.2,9.35c-0.74,3.5-0.71,7.02-0.72,10.58
					C6.22,43.98,9.22,43.98,9.22,42.05L9.22,42.05z"/>
			</g>
		</g>
		<g>
			<g>
				<path d="M18.91,33.65c0.42,1.31,0.02,2.73,0,4.08c-0.03,1.58,0.11,3.18,0.23,4.75c0.24,3.11,0.64,6.2,1.15,9.27
					c0.96-0.27,1.93-0.53,2.89-0.8c-0.05-0.19-0.1-0.39-0.15-0.58c-0.49-1.87-3.38-1.08-2.89,0.8c0.05,0.19,0.1,0.39,0.15,0.58
					c0.49,1.9,3.21,1.07,2.89-0.8c-0.51-3.04-0.88-6.1-1.1-9.17c-0.11-1.52-0.24-3.06-0.16-4.59c0.08-1.48,0.33-2.89-0.13-4.34
					C21.22,31.02,18.32,31.8,18.91,33.65L18.91,33.65z"/>
			</g>
		</g>
		<path class="st0" d="M16.26,123.42c12.58,0.45,25.18,0.42,37.76-0.05"/>
		<g>
			<g>
				<path d="M55.22,122.73c0.01-4.28-0.13-8.55-0.12-12.83c0.01-1.93-2.99-1.93-3,0c-0.01,4.28,0.12,8.55,0.12,12.83
					C52.22,124.66,55.22,124.66,55.22,122.73L55.22,122.73z"/>
			</g>
		</g>
		<g>
			<g>
				<path d="M56.68,100.97c1.55-2.12,2.27-4.71,2.97-7.21c0.21-0.76-0.26-1.67-1.05-1.85c-0.79-0.18-1.62,0.24-1.85,1.05
					c-0.33,1.18-0.65,2.36-1.08,3.5c-0.05,0.15-0.11,0.3-0.17,0.44c-0.03,0.07-0.06,0.15-0.09,0.22c0.08-0.18,0.08-0.19,0.01-0.03
					c-0.11,0.25-0.23,0.5-0.35,0.75c-0.29,0.56-0.62,1.1-0.99,1.61c-0.46,0.64-0.13,1.7,0.54,2.05
					C55.41,101.92,56.19,101.65,56.68,100.97L56.68,100.97z"/>
			</g>
		</g>
		<g>
			<g>
				<path d="M61.44,87.94c2.55-8.56-0.17-17.23-2.27-25.56c-0.47-1.87-3.37-1.08-2.89,0.8c1.96,7.79,4.66,15.96,2.27,23.97
					C57.99,89,60.88,89.79,61.44,87.94L61.44,87.94z"/>
			</g>
		</g>
		<g>
			<g>
				<path d="M56.49,63.8c1.97,3.33,2.46,7.28,2.57,11.09c0.12,4.18-0.23,8.36-0.51,12.54c-0.13,1.93,2.87,1.92,3,0
					c0.55-8.13,1.9-17.76-2.46-25.14C58.1,60.62,55.5,62.13,56.49,63.8L56.49,63.8z"/>
			</g>
		</g>
		<g>
			<g>
				<path d="M59.24,62.75c0.02-3.23,0.02-6.46-0.02-9.68c-0.02-1.64-0.24-2.93-1.41-4.16c-0.96-1.01-1.97-2.03-3.14-2.81
					c-2.36-1.59-5.42-2.18-8.19-1.57c-2.78,0.61-5.21,2.76-7.05,4.84c-1.28,1.44,0.84,3.57,2.12,2.12c1.47-1.66,3.36-3.5,5.58-4.03
					c2.13-0.51,4.51,0.1,6.25,1.39c0.87,0.65,1.79,1.52,2.48,2.37c0.64,0.78,0.35,2.25,0.36,3.19c0.02,2.78,0.02,5.56,0,8.35
					C56.23,64.68,59.23,64.68,59.24,62.75L59.24,62.75z"/>
			</g>
		</g>
		<g>
			<g>
				<path d="M40.62,52.75c0.39-0.06,0.71-0.13,0.95,0.16c0.43,0.52,0.79,1.34,0.98,1.98c0.44,1.42,0.02,3.2-0.35,4.6
					c-0.19,0.72-0.42,1.46-0.76,2.13c-0.32,0.64-0.64,0.76-1.22,1.14c-0.6,0.4-1.14,0.89-1.69,1.36c-0.32,0.27-0.73,0.62-1.15,0.66
					c-0.81,0.07-1.5,0.64-1.5,1.5c0,0.76,0.69,1.57,1.5,1.5c1.11-0.09,1.99-0.52,2.86-1.21c0.62-0.49,1.18-1.04,1.86-1.45
					c1.97-1.16,2.71-3.49,3.17-5.62c0.5-2.36,0.66-4.62-0.43-6.83c-0.43-0.88-0.93-1.88-1.78-2.43c-0.99-0.64-2.15-0.54-3.26-0.38
					c-0.8,0.12-1.24,1.13-1.05,1.85C39.01,52.56,39.81,52.86,40.62,52.75L40.62,52.75z"/>
			</g>
		</g>
		<g>
			<g>
				<path d="M42.22,65.75c0.41-0.1,1.23,0.02,1.83-0.04c0.96-0.1,1.63-0.53,2.37-1.12c1.12-0.88,2.01-2,2.82-3.16
					c0.78-1.12,1.46-2.3,2.24-3.42c0.37-0.53,0.67-0.98,1.17-1.42c0.55-0.47,1.21-0.82,1.82-1.21c1.62-1.04,0.12-3.63-1.51-2.59
					c-0.66,0.42-1.34,0.82-1.96,1.3c-0.65,0.51-1.14,1.09-1.63,1.75c-0.81,1.07-1.49,2.22-2.22,3.34c-0.7,1.07-1.33,1.96-2.29,2.83
					c-0.26,0.23-0.41,0.36-0.68,0.54c-0.05,0.03-0.35,0.21-0.28,0.18c0.16-0.06-0.01,0-0.09,0c-0.79-0.01-1.59-0.07-2.37,0.13
					C39.55,63.32,40.35,66.22,42.22,65.75L42.22,65.75z"/>
			</g>
		</g>
		<g>
			<g>
				<path d="M40.34,49.8c-1.9-0.66-3.79,0.51-5.39,1.41c-0.81,0.46-1.38,0.73-2.16,0.98c-0.21,0.07-0.43,0.13-0.64,0.18
					c-0.12,0.03-0.24,0.05-0.36,0.07c-0.03,0-0.31,0.05-0.17,0.03c0.15-0.02-0.27,0.02-0.26,0.02c-0.11,0.01-0.21,0.01-0.32,0.02
					c-0.28,0.01-0.56,0.01-0.84,0c-0.78-0.03-1.54,0.71-1.5,1.5c0.04,0.84,0.66,1.47,1.5,1.5c2.06,0.08,3.92-0.48,5.74-1.41
					c0.69-0.35,1.34-0.77,2.04-1.11c0.03-0.01,0.37-0.17,0.22-0.11c-0.13,0.05,0.13-0.05,0.15-0.06c0.2-0.07,0.4-0.12,0.6-0.18
					c0.15-0.04,0.14-0.02,0-0.01c0.08,0,0.18,0,0.26-0.01c0.25-0.03-0.07-0.06,0.04-0.01c0.09,0.04,0.21,0.06,0.31,0.09
					c0.74,0.26,1.67-0.29,1.85-1.05C41.58,50.81,41.13,50.08,40.34,49.8L40.34,49.8z"/>
			</g>
		</g>
		<g>
			<g>
				<path d="M23.94,8.94c0.46-0.15,0.86-0.41,1.09-0.84c0.21-0.39,0.14-0.72,0.28-1.12c0.06-0.16,0.02,0.06,0.01,0.07
					c0.1-0.14,0.18-0.3,0.28-0.44c0.16-0.24,0.31-0.48,0.48-0.71c0.22-0.29,0.65-0.74,0.97-0.92c0.47-0.27,1.1-0.36,1.66-0.45
					c0.52-0.09,0.92-0.14,1.53-0.13c0.51,0.01,0.9,0.08,1.29,0.33c0.39,0.24,0.7,0.62,0.96,1.05c0.14,0.23,0.24,0.42,0.31,0.64
					c0.1,0.34,0.1,0.37,0.05,0.61c-0.19,0.79,0.25,1.63,1.05,1.85c0.76,0.21,1.66-0.26,1.85-1.05c0.43-1.79-0.41-3.57-1.65-4.85
					c-1.22-1.26-2.93-1.7-4.65-1.55c-1.71,0.15-3.42,0.45-4.76,1.58c-0.59,0.5-1.06,1.16-1.49,1.8c-0.19,0.29-0.4,0.58-0.55,0.89
					c-0.11,0.22-0.2,0.45-0.26,0.69c-0.03,0.17-0.05,0.35-0.07,0.52c0.01-0.2,0.1-0.37,0.26-0.52c0.22-0.13,0.44-0.26,0.66-0.39
					c-0.03,0.01-0.07,0.02-0.1,0.03c-0.77,0.25-1.27,1.04-1.05,1.85C22.3,8.65,23.16,9.19,23.94,8.94L23.94,8.94z"/>
			</g>
		</g>
		<g>
			<g>
				<path d="M32.92,7.62c-0.32,5.65-0.69,11.3-0.86,16.96c-0.08,2.79-0.12,5.59-0.06,8.39c0.06,2.79,0.47,5.7-0.15,8.44
					c-0.43,1.88,2.46,2.68,2.89,0.8c0.62-2.73,0.37-5.48,0.29-8.25c-0.09-2.96-0.07-5.92,0.02-8.88c0.16-5.82,0.54-11.64,0.88-17.45
					C36.03,5.69,33.03,5.69,32.92,7.62L32.92,7.62z"/>
			</g>
		</g>
		<g>
			<g>
				<path d="M31.58,41.79c0.08,1.7,0.21,3.4,0.41,5.1c0.1,0.91,0.22,1.82,0.35,2.73c0.19,1.29,1.16,2.21,2.51,1.92
					c0.77-0.16,1.29-1.11,1.05-1.85c-0.26-0.81-1.02-1.22-1.85-1.05c1.23-0.26,1.34,1.18,1.2,0.34c-0.03-0.16-0.05-0.32-0.07-0.48
					c-0.05-0.33,0.01,0.05-0.03-0.24c-0.02-0.16-0.04-0.32-0.06-0.48c-0.08-0.67-0.16-1.34-0.22-2.02
					c-0.13-1.32-0.22-2.64-0.29-3.97c-0.04-0.78-0.66-1.54-1.5-1.5C32.3,40.33,31.54,40.95,31.58,41.79L31.58,41.79z"/>
			</g>
		</g>
		<g>
			<g>
				<path d="M36.09,49.52c0.1-1.23,0.55-2.4,0.7-3.63c0.16-1.26,0.11-2.52,0.08-3.78c-0.06-2.61-0.13-5.22-0.19-7.83
					c-0.13-5.21-0.37-10.43-0.36-15.64c0-1.1,0.03-2.21,0.17-3.3c0.11-0.89,0.25-2.88,0.95-3.5c0.48-0.43,2.49-0.38,3.1-0.24
					c0.53,0.12,0.49,0.07,0.69,0.64c0.22,0.61,0.34,1.28,0.49,1.91c1.16,4.93,1.61,9.97,2.03,15c0.47,5.7,0.91,11.42,2.11,17.02
					c0.4,1.89,3.3,1.09,2.89-0.8c-1.21-5.65-1.6-11.42-2.08-17.17c-0.47-5.55-0.84-11.43-2.55-16.77c-0.31-0.98-0.81-1.93-1.75-2.44
					c-1.05-0.57-2.45-0.43-3.6-0.38c-1.17,0.05-2.48,0.09-3.38,0.94c-0.9,0.84-1.25,2.29-1.52,3.44c-0.6,2.57-0.59,5.23-0.53,7.85
					c0.07,3.01,0.15,6.02,0.22,9.03c0.08,3.26,0.16,6.52,0.24,9.78c0.04,1.6,0.14,3.22,0.08,4.82c-0.06,1.72-0.67,3.32-0.81,5.03
					C32.93,51.44,35.93,51.43,36.09,49.52L36.09,49.52z"/>
			</g>
		</g>
		<g>
			<g>
				<path d="M22.33,7.58c-0.5,3.55-0.95,7.12-1.34,10.68c-0.09,0.81,0.75,1.5,1.5,1.5c0.88,0,1.41-0.69,1.5-1.5
					c0.36-3.3,0.76-6.6,1.23-9.89c0.11-0.8-0.2-1.61-1.05-1.85C23.47,6.34,22.44,6.77,22.33,7.58L22.33,7.58z"/>
			</g>
		</g>
		<g>
			<g>
				<path d="M20.64,34.71c-0.16,3-0.24,6.01,0.21,8.99c0.35,2.35,1.51,4.94,0.03,7.11c-1.09,1.6,1.51,3.1,2.59,1.51
					c1.76-2.58,1.03-5.46,0.47-8.29c-0.61-3.06-0.46-6.22-0.29-9.32C23.74,32.78,20.74,32.78,20.64,34.71L20.64,34.71z"/>
			</g>
		</g>
		<g>
			<g>
				<path d="M23.64,33.72c-0.3-5.54-0.11-11.1,0.57-16.6c0.1-0.81-0.76-1.5-1.5-1.5c-0.89,0-1.4,0.69-1.5,1.5
					c-0.68,5.51-0.87,11.06-0.57,16.6C20.75,35.64,23.75,35.65,23.64,33.72L23.64,33.72z"/>
			</g>
		</g>
		<g>
			<g>
				<path d="M37.03,64.76c-1.82,0.24-3.8,0.68-5.31,1.77c-1.49,1.08-2.25,2.91-2.77,4.63c-1.06,3.54-0.84,7.31-0.57,10.94
					c0.06,0.81,0.65,1.5,1.5,1.5c0.77,0,1.56-0.69,1.5-1.5c-0.22-3.01-0.47-6.12,0.19-9.09c0.28-1.23,0.68-2.87,1.6-3.8
					c0.91-0.92,2.63-1.28,3.86-1.45c0.8-0.11,1.5-0.61,1.5-1.5C38.53,65.53,37.84,64.65,37.03,64.76L37.03,64.76z"/>
			</g>
		</g>
		<g>
			<g>
				<path d="M11.74,23.75c0.91-1.61,0.61-3.27,0.75-5.03c0.15-2,0.8-3.88,0.78-5.91c-0.01-1.11,0.16-1.56,0.68-2.49
					C14.23,9.8,14.37,9,14.8,8.59c0.53-0.51,1.8-0.61,2.5-0.79c1.07-0.29,1.6-0.11,2.17,0.92c0.94,1.72,0.7,3.82,0.57,5.69
					c-0.15,2.11-0.32,4.21-0.49,6.32c-0.34,4.29-0.65,8.59-0.73,12.89c-0.03,1.93,2.97,1.93,3,0c0.09-5.04,0.5-10.06,0.9-15.08
					c0.33-4.17,1.59-10-2.1-13.11c-1.8-1.52-4.07-0.66-6.09,0c-2.05,0.66-2.41,2.15-3.45,3.81c-1.21,1.93-0.67,4.18-1.09,6.33
					c-0.23,1.19-0.49,2.38-0.53,3.6c-0.03,1.01,0.21,2.13-0.31,3.06C8.2,23.91,10.79,25.43,11.74,23.75L11.74,23.75z"/>
			</g>
		</g>
		<g>
			<g>
				<path d="M6.02,47.1c-0.46,3.84-0.71,7.71-0.74,11.58c-0.01,1.93,2.99,1.93,3,0c0.03-3.87,0.27-7.74,0.74-11.58
					c0.1-0.81-0.76-1.5-1.5-1.5C6.63,45.6,6.11,46.29,6.02,47.1L6.02,47.1z"/>
			</g>
		</g>
		<g>
			<g>
				<path d="M6.26,42.7c-0.16,1.69-0.27,3.38-0.34,5.08c-0.03,0.78,0.71,1.54,1.5,1.5c0.84-0.04,1.47-0.66,1.5-1.5
					c0.07-1.7,0.18-3.39,0.34-5.08c0.03-0.36-0.19-0.81-0.44-1.06c-0.26-0.26-0.69-0.46-1.06-0.44c-0.39,0.02-0.79,0.14-1.06,0.44
					C6.41,41.95,6.3,42.28,6.26,42.7L6.26,42.7z"/>
			</g>
		</g>
		<g>
			<g>
				<path d="M6.38,41.73c0.01,0.25,0.01,0.49-0.03,0.74c0.02-0.13,0.04-0.27,0.05-0.4c-0.01,0.07-0.02,0.15-0.04,0.22
					c-0.06,0.2-0.07,0.4-0.03,0.6c0.01,0.2,0.07,0.39,0.18,0.56c0.09,0.17,0.22,0.32,0.39,0.42c0.14,0.13,0.31,0.22,0.51,0.27
					c0.13,0.02,0.27,0.04,0.4,0.05c0.27,0,0.52-0.07,0.76-0.2c0.1-0.08,0.2-0.16,0.3-0.23c0.19-0.19,0.31-0.41,0.39-0.66
					c0.04-0.2,0.06-0.41,0.09-0.62c0.01-0.08,0.02-0.17,0.03-0.25c0.01-0.16,0.01-0.33,0-0.49c0.01-0.21-0.04-0.4-0.13-0.58
					c-0.06-0.19-0.16-0.35-0.31-0.48c-0.14-0.15-0.3-0.25-0.48-0.31c-0.18-0.09-0.37-0.14-0.58-0.13c-0.13,0.02-0.27,0.04-0.4,0.05
					c-0.25,0.07-0.47,0.2-0.66,0.39c-0.08,0.1-0.16,0.2-0.23,0.3C6.45,41.21,6.38,41.46,6.38,41.73L6.38,41.73z"/>
			</g>
		</g>
		<g>
			<g>
				<path d="M20.57,34.07c0,0.1,0,0.2,0,0.3c-0.01,0.21,0.04,0.4,0.13,0.58c0.06,0.19,0.16,0.35,0.31,0.48
					c0.14,0.15,0.3,0.25,0.48,0.31c0.18,0.09,0.37,0.14,0.58,0.13c0.13-0.02,0.27-0.04,0.4-0.05c0.25-0.07,0.47-0.2,0.66-0.39
					c0.08-0.1,0.16-0.2,0.23-0.3c0.14-0.23,0.2-0.49,0.2-0.76c0-0.1,0-0.2,0-0.3c0.01-0.21-0.04-0.4-0.13-0.58
					c-0.06-0.19-0.16-0.35-0.31-0.48c-0.14-0.15-0.3-0.25-0.48-0.31c-0.18-0.09-0.37-0.14-0.58-0.13c-0.13,0.02-0.27,0.04-0.4,0.05
					c-0.25,0.07-0.47,0.2-0.66,0.39c-0.08,0.1-0.16,0.2-0.23,0.3C20.64,33.55,20.57,33.8,20.57,34.07L20.57,34.07z"/>
			</g>
		</g>
	</g>
	<g>
		<g>
			<path d="M13.14,119.03c0.04,1.34,0.29,2.69,0.79,3.93c0.15,0.38,0.33,0.68,0.69,0.9c0.32,0.19,0.8,0.27,1.16,0.15
				c0.36-0.12,0.71-0.34,0.9-0.69c0.18-0.33,0.3-0.79,0.15-1.16c-0.32-0.8-0.53-1.63-0.65-2.48c0.02,0.13,0.04,0.27,0.05,0.4
				c-0.05-0.35-0.07-0.7-0.09-1.05c-0.01-0.39-0.16-0.78-0.44-1.06c-0.26-0.26-0.69-0.46-1.06-0.44c-0.39,0.02-0.79,0.14-1.06,0.44
				C13.31,118.26,13.13,118.63,13.14,119.03L13.14,119.03z"/>
		</g>
	</g>
	<g>
		<g>
			<path d="M54.37,99.05c-2.52,2.96-2.56,6.8-2.36,10.49c0.04,0.78,0.66,1.54,1.5,1.5c0.78-0.03,1.55-0.66,1.5-1.5
				c-0.05-0.85-0.1-1.71-0.1-2.56c0-0.43,0.01-0.85,0.03-1.28c0.01-0.21,0.03-0.43,0.05-0.64c0.01-0.09,0.02-0.18,0.03-0.27
				c-0.01,0.12-0.01,0.09,0.02-0.09c0.13-0.71,0.3-1.42,0.57-2.09c-0.09,0.22,0.1-0.21,0.1-0.21c0.09-0.18,0.19-0.36,0.29-0.54
				c0.08-0.13,0.16-0.26,0.25-0.39c0.06-0.08,0.12-0.17,0.18-0.25c-0.07,0.1-0.06,0.08,0.06-0.06c0.51-0.6,0.63-1.54,0-2.12
				C55.93,98.54,54.91,98.41,54.37,99.05L54.37,99.05z"/>
		</g>
	</g>
	<g>
		<g>
			<path d="M58.56,87.51c0,0.07,0,0.13,0,0.2c-0.02,0.17-0.01,0.13,0.02-0.11c-0.03,0.01-0.06,0.29-0.07,0.33
				c-0.03,0.11-0.07,0.22-0.1,0.33c-0.02,0.06-0.05,0.12-0.07,0.19c-0.06,0.15-0.05,0.12,0.03-0.08c-0.12,0.19-0.2,0.43-0.3,0.64
				c-0.14,0.3-0.28,0.61-0.4,0.91c-0.41,0.99-0.65,2.03-0.88,3.06c-0.17,0.76,0.23,1.66,1.05,1.85c0.76,0.17,1.66-0.23,1.85-1.05
				c0.12-0.54,0.24-1.08,0.39-1.61c0.08-0.28,0.16-0.56,0.26-0.84c0.04-0.1,0.07-0.21,0.11-0.31c0.03-0.07,0.05-0.14,0.08-0.2
				c-0.08,0.19-0.09,0.21-0.03,0.06c0.51-1.08,1.07-2.14,1.07-3.37c0-0.78-0.69-1.54-1.5-1.5C59.24,86.05,58.56,86.67,58.56,87.51
				L58.56,87.51z"/>
		</g>
	</g>
	<g>
		<g>
			<path d="M15.11,124.32c2.92,1.38,5.83,1.54,9.01,1.6c3.47,0.06,6.93,0.13,10.4,0.19c6.64,0.12,13.37,0.23,19.81-1.64
				c1.85-0.53,1.06-3.43-0.8-2.89c-6.03,1.74-12.31,1.65-18.53,1.54c-3.14-0.06-6.29-0.12-9.43-0.17c-3.05-0.06-6.12,0.12-8.94-1.21
				C14.89,120.9,13.37,123.49,15.11,124.32L15.11,124.32z"/>
		</g>
	</g>
	<g>
		<g>
			<path d="M7.72,74.37c2.78-2.5,3.72-6.27,6.24-8.95c0.7-0.74,1.61-1.12,2.47-1.63c0.91-0.54,1.8-1.11,2.68-1.7
				c0.95-0.63,1.87-1.32,2.71-2.09c0.74-0.68,1.41-1.41,2.3-1.9c1.69-0.94,0.18-3.53-1.51-2.59c-1.87,1.03-3.23,2.8-5.01,3.99
				c-0.92,0.61-1.85,1.22-2.81,1.78c-0.97,0.56-1.95,1.03-2.76,1.82c-2.7,2.65-3.62,6.61-6.44,9.15
				C4.16,73.55,6.29,75.66,7.72,74.37L7.72,74.37z"/>
		</g>
	</g>
	<g>
		<g>
			<path d="M23.86,58.07c0.73-0.05,1.47-0.1,2.18-0.26c0.64-0.15,1.27-0.42,1.85-0.72c0.5-0.26,0.98-0.56,1.46-0.85
				c0.24-0.14,0.49-0.29,0.73-0.42c0.12-0.07,0.25-0.13,0.38-0.19c0.08-0.04,0.52-0.23,0.12-0.06c0.38-0.15,0.68-0.32,0.9-0.69
				c0.19-0.32,0.27-0.8,0.15-1.16c-0.23-0.7-1.07-1.37-1.85-1.05c-1.11,0.46-2.09,1.1-3.14,1.68c-0.22,0.12-0.5,0.32-0.75,0.37
				c0.36-0.08,0.07-0.03-0.03,0c-0.13,0.05-0.27,0.09-0.4,0.13c-0.15,0.04-0.31,0.08-0.47,0.11c-0.08,0.01-0.16,0.03-0.24,0.04
				c0.2-0.03,0.22-0.03,0.04-0.01c-0.32,0.03-0.64,0.06-0.95,0.08c-0.78,0.05-1.54,0.65-1.5,1.5C22.4,57.34,23.02,58.13,23.86,58.07
				L23.86,58.07z"/>
		</g>
	</g>
</g>
</svg>
